<?xml version="1.0" encoding="UTF-8" standalone="no"?>
<svg 
   width="227.03999pt"
   height="325.91998pt"
   viewBox="0 0 227.03999 325.91998"
   version="1.1"
   id="svg17"
   xmlns="http://www.w3.org/2000/svg"
   xmlns:svg="http://www.w3.org/2000/svg" content="%3Cmxfile%20host%3D%22app.diagrams.net%22%20modified%3D%222023-12-02T19%3A09%3A47.231Z%22%20agent%3D%22Mozilla%2F5.0%20(Windows%20NT%2010.0%3B%20Win64%3B%20x64)%20AppleWebKit%2F537.36%20(KHTML%2C%20like%20Gecko)%20Chrome%2F118.0.0.0%20Safari%2F537.36%20OPR%2F104.0.0.0%22%20version%3D%2222.1.5%22%20etag%3D%22sk1wlhQVVyZuuFZpL94z%22%20type%3D%22device%22%3E%20%20%20%3Cdiagram%20name%3D%22P%C3%A1gina-1%22%20id%3D%22C90vUFngJOnKdWFNCAss%22%3E%20%20%20%20%20%3CmxGraphModel%20dx%3D%221050%22%20dy%3D%22573%22%20grid%3D%221%22%20gridSize%3D%2210%22%20guides%3D%221%22%20tooltips%3D%221%22%20connect%3D%221%22%20arrows%3D%221%22%20fold%3D%221%22%20page%3D%221%22%20pageScale%3D%221%22%20pageWidth%3D%22827%22%20pageHeight%3D%221169%22%20math%3D%220%22%20shadow%3D%220%22%3E%20%20%20%20%20%20%20%3Croot%3E%20%20%20%20%20%20%20%20%20%3CmxCell%20id%3D%220%22%20%2F%3E%20%20%20%20%20%20%20%20%20%3CmxCell%20id%3D%221%22%20parent%3D%220%22%20%2F%3E%20%20%20%20%20%20%20%20%20%3CmxCell%20id%3D%222%22%20value%3D%22%22%20style%3D%22group%22%20vertex%3D%221%22%20connectable%3D%220%22%20parent%3D%221%22%3E%20%20%20%20%20%20%20%20%20%20%20%3CmxGeometry%20x%3D%2270.00000000000003%22%20y%3D%2250.000000000000085%22%20width%3D%22300%22%20height%3D%22428.59000000000003%22%20as%3D%22geometry%22%20%2F%3E%20%20%20%20%20%20%20%20%20%3C%2FmxCell%3E%20%20%20%20%20%20%20%20%20%3CmxCell%20id%3D%223%22%20value%3D%22%22%20style%3D%22verticalLabelPosition%3Dbottom%3BverticalAlign%3Dtop%3Bhtml%3D1%3Bshape%3Dmxgraph.basic.drop%3Brotation%3D-180%3BstrokeColor%3Ddefault%3BfillColor%3D%23e74c3c%3BstrokeWidth%3D2%3B%22%20vertex%3D%221%22%20parent%3D%222%22%3E%20%20%20%20%20%20%20%20%20%20%20%3CmxGeometry%20width%3D%22300%22%20height%3D%22428.59%22%20as%3D%22geometry%22%20%2F%3E%20%20%20%20%20%20%20%20%20%3C%2FmxCell%3E%20%20%20%20%20%20%20%20%20%3CmxCell%20id%3D%224%22%20value%3D%22%26lt%3Btable%26gt%3B%26lt%3Btbody%26gt%3B%26lt%3Btr%26gt%3B%26lt%3Btd%26gt%3B%26lt%3Bbr%26gt%3B%26lt%3B%2Ftd%26gt%3B%26lt%3Btd%26gt%3B%26lt%3Bbr%26gt%3B%26lt%3B%2Ftd%26gt%3B%26lt%3Btd%26gt%3B%26lt%3Bbr%26gt%3B%26lt%3B%2Ftd%26gt%3B%26lt%3Btd%26gt%3B%26lt%3Bbr%26gt%3B%26lt%3B%2Ftd%26gt%3B%26lt%3B%2Ftr%26gt%3B%26lt%3Btr%26gt%3B%26lt%3Btd%26gt%3B%26lt%3Bbr%26gt%3B%26lt%3B%2Ftd%26gt%3B%26lt%3Btd%26gt%3B%26lt%3Bbr%26gt%3B%26lt%3B%2Ftd%26gt%3B%26lt%3Btd%26gt%3B%26lt%3Bbr%26gt%3B%26lt%3B%2Ftd%26gt%3B%26lt%3Btd%26gt%3B%26lt%3Bbr%26gt%3B%26lt%3B%2Ftd%26gt%3B%26lt%3B%2Ftr%26gt%3B%26lt%3Btr%26gt%3B%26lt%3Btd%26gt%3B%26lt%3Bbr%26gt%3B%26lt%3B%2Ftd%26gt%3B%26lt%3Btd%26gt%3B%26lt%3Bbr%26gt%3B%26lt%3B%2Ftd%26gt%3B%26lt%3Btd%26gt%3B%26lt%3Bbr%26gt%3B%26lt%3B%2Ftd%26gt%3B%26lt%3Btd%26gt%3B%26lt%3Bbr%26gt%3B%26lt%3B%2Ftd%26gt%3B%26lt%3B%2Ftr%26gt%3B%26lt%3B%2Ftbody%26gt%3B%26lt%3B%2Ftable%26gt%3B%22%20style%3D%22ellipse%3BwhiteSpace%3Dwrap%3Bhtml%3D1%3Baspect%3Dfixed%3BfillColor%3D%23c0392b%3BstrokeColor%3Dnone%3BfillStyle%3Dauto%3B%22%20vertex%3D%221%22%20parent%3D%222%22%3E%20%20%20%20%20%20%20%20%20%20%20%3CmxGeometry%20x%3D%2257.5%22%20y%3D%2252.5%22%20width%3D%22185%22%20height%3D%22185%22%20as%3D%22geometry%22%20%2F%3E%20%20%20%20%20%20%20%20%20%3C%2FmxCell%3E%20%20%20%20%20%20%20%20%20%3CmxCell%20id%3D%225%22%20value%3D%22%22%20style%3D%22ellipse%3BwhiteSpace%3Dwrap%3Bhtml%3D1%3Baspect%3Dfixed%3Bshadow%3D0%3BfillColor%3Ddefault%3BstrokeColor%3Ddefault%3BfillStyle%3Dauto%3BfillOpacity%3D100%3BstrokeOpacity%3D100%3BnoLabel%3D0%3BperimeterSpacing%3D0%3BstrokeWidth%3D2%3B%22%20vertex%3D%221%22%20parent%3D%222%22%3E%20%20%20%20%20%20%20%20%20%20%20%3CmxGeometry%20x%3D%2293%22%20y%3D%2288%22%20width%3D%22114%22%20height%3D%22114%22%20as%3D%22geometry%22%20%2F%3E%20%20%20%20%20%20%20%20%20%3C%2FmxCell%3E%20%20%20%20%20%20%20%3C%2Froot%3E%20%20%20%20%20%3C%2FmxGraphModel%3E%20%20%20%3C%2Fdiagram%3E%20%3C%2Fmxfile%3E%20">
  <defs
     id="defs5">
    <clipPath
       id="clip-0">
      <path
         clip-rule="nonzero"
         d="M 0 0 L 227 0 L 227 324.394531 L 0 324.394531 Z M 0 0 "
         id="path2" />
    </clipPath>
  </defs>
  <path
     fill-rule="nonzero"
     fill="rgb(90.589905%, 29.798889%, 23.529053%)"
     fill-opacity="1"
     d="M 113.125 321.84375 L 18.429688 173.636719 C 6.886719 155.574219 0.75 134.574219 0.75 113.132813 C 0.75 83.332031 12.585938 54.742188 33.660156 33.667969 C 54.734375 12.59375 83.324219 0.757813 113.125 0.757813 C 142.925781 0.757813 171.515625 12.59375 192.589844 33.667969 C 213.664063 54.742188 225.5 83.332031 225.5 113.132813 C 225.5 134.574219 219.367188 155.574219 207.820313 173.636719 Z M 113.125 321.84375 "
     id="path7" />
  <g
     clip-path="url(#clip-0)"
     id="g11">
    <path
       fill="none"
       stroke-width="2"
       stroke-linecap="butt"
       stroke-linejoin="miter"
       stroke="#000000"
       stroke-opacity="1"
       stroke-miterlimit="10"
       d="M 151.00054,1.002373 277.40002,198.8294 c 15.40758,24.10986 23.59888,52.1407 23.59888,80.76073 0,39.77813 -15.79863,77.93991 -43.92854,106.06982 -28.12991,28.12991 -66.29168,43.92854 -106.06982,43.92854 -39.77814,0 -77.939918,-15.79863 -106.069824,-43.92854 C 16.800809,357.53004 1.002177,319.36826 1.002177,279.59013 c 0,-28.62003 8.18609,-56.65087 23.59888,-80.76073 z m 0,0"
       transform="matrix(-0.749175,0,0,-0.749175,226.25081,322.5947)"
       id="path9" />
  </g>
  <path
     fill-rule="nonzero"
     fill="rgb(75.289917%, 22.349548%, 16.859436%)"
     fill-opacity="1"
     d="M 182.796875 109.753906 C 182.796875 110.886719 182.769531 112.023438 182.714844 113.15625 C 182.660156 114.289063 182.574219 115.417969 182.464844 116.546875 C 182.355469 117.675781 182.214844 118.800781 182.046875 119.921875 C 181.882813 121.042969 181.6875 122.160156 181.46875 123.273438 C 181.246094 124.386719 180.996094 125.492188 180.722656 126.59375 C 180.445313 127.691406 180.144531 128.785156 179.816406 129.871094 C 179.484375 130.957031 179.128906 132.03125 178.746094 133.101563 C 178.367188 134.167969 177.957031 135.226563 177.523438 136.273438 C 177.089844 137.320313 176.628906 138.359375 176.144531 139.382813 C 175.660156 140.410156 175.152344 141.421875 174.617188 142.421875 C 174.082031 143.421875 173.523438 144.40625 172.9375 145.378906 C 172.355469 146.351563 171.75 147.3125 171.121094 148.253906 C 170.488281 149.199219 169.835938 150.125 169.160156 151.035156 C 168.484375 151.945313 167.789063 152.839844 167.070313 153.714844 C 166.347656 154.59375 165.609375 155.453125 164.847656 156.292969 C 164.085938 157.132813 163.304688 157.953125 162.5 158.753906 C 161.699219 159.558594 160.878906 160.339844 160.039063 161.101563 C 159.199219 161.863281 158.339844 162.601563 157.460938 163.324219 C 156.585938 164.042969 155.691406 164.738281 154.78125 165.414063 C 153.871094 166.089844 152.941406 166.742188 152 167.375 C 151.058594 168.003906 150.097656 168.609375 149.125 169.195313 C 148.152344 169.777344 147.167969 170.335938 146.167969 170.871094 C 145.167969 171.40625 144.152344 171.914063 143.128906 172.398438 C 142.105469 172.882813 141.066406 173.34375 140.019531 173.777344 C 138.972656 174.210938 137.914063 174.621094 136.847656 175 C 135.777344 175.382813 134.703125 175.738281 133.617188 176.070313 C 132.53125 176.398438 131.4375 176.699219 130.339844 176.976563 C 129.238281 177.25 128.132813 177.5 127.019531 177.722656 C 125.90625 177.941406 124.789063 178.136719 123.667969 178.304688 C 122.546875 178.46875 121.421875 178.609375 120.292969 178.71875 C 119.164063 178.832031 118.03125 178.914063 116.898438 178.96875 C 115.765625 179.023438 114.632813 179.054688 113.5 179.054688 C 112.367188 179.054688 111.234375 179.023438 110.101563 178.96875 C 108.96875 178.914063 107.835938 178.832031 106.707031 178.71875 C 105.578125 178.609375 104.453125 178.46875 103.332031 178.304688 C 102.210938 178.136719 101.09375 177.941406 99.980469 177.722656 C 98.867188 177.5 97.761719 177.25 96.660156 176.976563 C 95.5625 176.699219 94.46875 176.398438 93.382813 176.070313 C 92.296875 175.738281 91.222656 175.382813 90.152344 175 C 89.085938 174.621094 88.027344 174.210938 86.980469 173.777344 C 85.933594 173.34375 84.894531 172.882813 83.871094 172.398438 C 82.847656 171.914063 81.832031 171.40625 80.832031 170.871094 C 79.832031 170.335938 78.847656 169.777344 77.875 169.195313 C 76.902344 168.609375 75.941406 168.003906 75 167.375 C 74.058594 166.742188 73.128906 166.089844 72.21875 165.414063 C 71.308594 164.738281 70.414063 164.042969 69.539063 163.324219 C 68.660156 162.601563 67.800781 161.863281 66.960938 161.101563 C 66.121094 160.339844 65.300781 159.558594 64.5 158.753906 C 63.695313 157.953125 62.914063 157.132813 62.152344 156.292969 C 61.390625 155.453125 60.652344 154.59375 59.929688 153.714844 C 59.210938 152.839844 58.515625 151.945313 57.839844 151.035156 C 57.164063 150.125 56.511719 149.199219 55.878906 148.253906 C 55.25 147.3125 54.644531 146.351563 54.058594 145.378906 C 53.476563 144.40625 52.917969 143.421875 52.382813 142.421875 C 51.847656 141.421875 51.339844 140.410156 50.855469 139.382813 C 50.371094 138.359375 49.910156 137.320313 49.476563 136.273438 C 49.042969 135.226563 48.632813 134.167969 48.253906 133.101563 C 47.871094 132.03125 47.515625 130.957031 47.183594 129.871094 C 46.855469 128.785156 46.554688 127.691406 46.277344 126.59375 C 46.003906 125.492188 45.753906 124.386719 45.53125 123.273438 C 45.3125 122.160156 45.117188 121.042969 44.953125 119.921875 C 44.785156 118.800781 44.644531 117.675781 44.535156 116.546875 C 44.425781 115.417969 44.339844 114.289063 44.285156 113.15625 C 44.230469 112.023438 44.203125 110.886719 44.203125 109.753906 C 44.203125 108.621094 44.230469 107.488281 44.285156 106.355469 C 44.339844 105.222656 44.425781 104.089844 44.535156 102.960938 C 44.644531 101.832031 44.785156 100.707031 44.953125 99.585938 C 45.117188 98.464844 45.3125 97.347656 45.53125 96.234375 C 45.753906 95.121094 46.003906 94.015625 46.277344 92.914063 C 46.554688 91.816406 46.855469 90.722656 47.183594 89.636719 C 47.515625 88.550781 47.871094 87.476563 48.253906 86.40625 C 48.632813 85.339844 49.042969 84.28125 49.476563 83.234375 C 49.910156 82.1875 50.371094 81.148438 50.855469 80.125 C 51.339844 79.101563 51.847656 78.085938 52.382813 77.085938 C 52.917969 76.085938 53.476563 75.101563 54.058594 74.128906 C 54.644531 73.15625 55.25 72.195313 55.878906 71.253906 C 56.511719 70.3125 57.164063 69.382813 57.839844 68.472656 C 58.515625 67.5625 59.210938 66.667969 59.929688 65.792969 C 60.652344 64.914063 61.390625 64.054688 62.152344 63.214844 C 62.914063 62.375 63.695313 61.554688 64.5 60.753906 C 65.300781 59.949219 66.121094 59.167969 66.960938 58.40625 C 67.800781 57.644531 68.660156 56.90625 69.539063 56.183594 C 70.414063 55.464844 71.308594 54.769531 72.21875 54.09375 C 73.128906 53.417969 74.058594 52.765625 75 52.132813 C 75.941406 51.503906 76.902344 50.898438 77.875 50.316406 C 78.847656 49.730469 79.832031 49.171875 80.832031 48.636719 C 81.832031 48.105469 82.847656 47.59375 83.871094 47.109375 C 84.894531 46.625 85.933594 46.164063 86.980469 45.730469 C 88.027344 45.296875 89.085938 44.886719 90.152344 44.507813 C 91.222656 44.125 92.296875 43.769531 93.382813 43.4375 C 94.46875 43.109375 95.5625 42.808594 96.660156 42.53125 C 97.761719 42.257813 98.867188 42.007813 99.980469 41.785156 C 101.09375 41.566406 102.210938 41.371094 103.332031 41.207031 C 104.453125 41.039063 105.578125 40.898438 106.707031 40.789063 C 107.835938 40.679688 108.96875 40.59375 110.101563 40.539063 C 111.234375 40.484375 112.367188 40.457031 113.5 40.457031 C 114.632813 40.457031 115.765625 40.484375 116.898438 40.539063 C 118.03125 40.59375 119.164063 40.679688 120.292969 40.789063 C 121.421875 40.898438 122.546875 41.039063 123.667969 41.207031 C 124.789063 41.371094 125.90625 41.566406 127.019531 41.785156 C 128.132813 42.007813 129.238281 42.257813 130.339844 42.53125 C 131.4375 42.808594 132.53125 43.109375 133.617188 43.4375 C 134.703125 43.769531 135.777344 44.125 136.847656 44.507813 C 137.914063 44.886719 138.972656 45.296875 140.019531 45.730469 C 141.066406 46.164063 142.105469 46.625 143.128906 47.109375 C 144.152344 47.59375 145.167969 48.105469 146.167969 48.636719 C 147.167969 49.171875 148.152344 49.730469 149.125 50.316406 C 150.097656 50.898438 151.058594 51.503906 152 52.132813 C 152.941406 52.765625 153.871094 53.417969 154.78125 54.09375 C 155.691406 54.769531 156.585938 55.464844 157.460938 56.183594 C 158.339844 56.90625 159.199219 57.644531 160.039063 58.40625 C 160.878906 59.167969 161.699219 59.949219 162.5 60.753906 C 163.304688 61.554688 164.085938 62.375 164.847656 63.214844 C 165.609375 64.054688 166.347656 64.914063 167.070313 65.792969 C 167.789063 66.667969 168.484375 67.5625 169.160156 68.472656 C 169.835938 69.382813 170.488281 70.3125 171.121094 71.253906 C 171.75 72.195313 172.355469 73.15625 172.9375 74.128906 C 173.523438 75.101563 174.082031 76.085938 174.617188 77.085938 C 175.152344 78.085938 175.660156 79.101563 176.144531 80.125 C 176.628906 81.148438 177.089844 82.1875 177.523438 83.234375 C 177.957031 84.28125 178.367188 85.339844 178.746094 86.40625 C 179.128906 87.476563 179.484375 88.550781 179.816406 89.636719 C 180.144531 90.722656 180.445313 91.816406 180.722656 92.914063 C 180.996094 94.015625 181.246094 95.121094 181.46875 96.234375 C 181.6875 97.347656 181.882813 98.464844 182.046875 99.585938 C 182.214844 100.707031 182.355469 101.832031 182.464844 102.960938 C 182.574219 104.089844 182.660156 105.222656 182.714844 106.355469 C 182.769531 107.488281 182.796875 108.621094 182.796875 109.753906 Z M 182.796875 109.753906 "
     id="path13" />
  <path
     fill-rule="nonzero"
     fill="rgb(100%, 100%, 100%)"
     fill-opacity="1"
     stroke-width="2"
     stroke-linecap="butt"
     stroke-linejoin="miter"
     stroke="rgb(0%, 0%, 0%)"
     stroke-opacity="1"
     stroke-miterlimit="4"
     d="M 207.999675 145.99917 C 207.999675 147.865807 207.911036 149.72723 207.723329 151.588653 C 207.540837 153.444862 207.269705 155.290643 206.90472 157.120781 C 206.539735 158.95092 206.086111 160.760202 205.543848 162.548628 C 205.001585 164.33184 204.375896 166.088981 203.661569 167.814838 C 202.947241 169.535482 202.149489 171.22484 201.268311 172.867272 C 200.387133 174.514918 199.432958 176.115638 198.395358 177.669431 C 197.357758 179.218009 196.247161 180.719661 195.063568 182.158745 C 193.87476 183.603042 192.623383 184.984771 191.304223 186.30393 C 189.985064 187.62309 188.603335 188.879681 187.159038 190.063275 C 185.71474 191.246868 184.218302 192.357465 182.669724 193.395065 C 181.115931 194.432665 179.515211 195.392054 177.867565 196.268018 C 176.225133 197.149196 174.535775 197.946948 172.815131 198.661276 C 171.089274 199.375603 169.332133 200.001292 167.543707 200.543555 C 165.760495 201.085818 163.951213 201.539442 162.121074 201.904427 C 160.290936 202.269412 158.445155 202.540544 156.588946 202.723036 C 154.727523 202.910743 152.8661 202.999382 150.999463 202.999382 C 149.132826 202.999382 147.271403 202.910743 145.415194 202.723036 C 143.553771 202.540544 141.713205 202.269412 139.877852 201.904427 C 138.047714 201.539442 136.238431 201.085818 134.45522 200.543555 C 132.666794 200.001292 130.909652 199.375603 129.189009 198.661276 C 127.463152 197.946948 125.779007 197.149196 124.131361 196.268018 C 122.483715 195.392054 120.882996 194.432665 119.334417 193.395065 C 117.780624 192.357465 116.284186 191.246868 114.839889 190.063275 C 113.395591 188.879681 112.013863 187.62309 110.694703 186.30393 C 109.375543 184.984771 108.124167 183.603042 106.940573 182.158745 C 105.751765 180.719661 104.641168 179.218009 103.608782 177.669431 C 102.571182 176.115638 101.611793 174.514918 100.730616 172.867272 C 99.849438 171.22484 99.051685 169.535482 98.337358 167.814838 C 97.62303 166.088981 96.997342 164.33184 96.455078 162.548628 C 95.912815 160.760202 95.459191 158.95092 95.094206 157.120781 C 94.729221 155.290643 94.45809 153.444862 94.275597 151.588653 C 94.093105 149.72723 93.999251 147.865807 93.999251 145.99917 C 93.999251 144.132533 94.093105 142.27111 94.275597 140.414901 C 94.45809 138.553478 94.729221 136.712912 95.094206 134.877559 C 95.459191 133.047421 95.912815 131.238138 96.455078 129.454927 C 96.997342 127.666501 97.62303 125.909359 98.337358 124.188716 C 99.051685 122.462859 99.849438 120.778714 100.730616 119.131068 C 101.611793 117.483422 102.571182 115.882703 103.608782 114.334124 C 104.641168 112.780331 105.751765 111.283893 106.940573 109.839596 C 108.124167 108.395298 109.375543 107.01357 110.694703 105.69441 C 112.013863 104.37525 113.395591 103.123874 114.839889 101.94028 C 116.284186 100.756686 117.780624 99.640875 119.334417 98.608489 C 120.882996 97.570889 122.483715 96.6115 124.131361 95.730323 C 125.779007 94.849145 127.463152 94.051392 129.189009 93.337065 C 130.909652 92.622737 132.666794 91.997049 134.45522 91.454785 C 136.238431 90.912522 138.047714 90.458898 139.877852 90.093913 C 141.713205 89.728928 143.553771 89.457797 145.415194 89.275304 C 147.271403 89.092812 149.132826 88.998958 150.999463 88.998958 C 152.8661 88.998958 154.727523 89.092812 156.588946 89.275304 C 158.445155 89.457797 160.290936 89.728928 162.121074 90.093913 C 163.951213 90.458898 165.760495 90.912522 167.543707 91.454785 C 169.332133 91.997049 171.089274 92.622737 172.815131 93.337065 C 174.535775 94.051392 176.225133 94.849145 177.867565 95.730323 C 179.515211 96.6115 181.115931 97.570889 182.669724 98.608489 C 184.218302 99.640875 185.71474 100.756686 187.159038 101.94028 C 188.603335 103.123874 189.985064 104.37525 191.304223 105.69441 C 192.623383 107.01357 193.87476 108.395298 195.063568 109.839596 C 196.247161 111.283893 197.357758 112.780331 198.395358 114.334124 C 199.432958 115.882703 200.387133 117.483422 201.268311 119.131068 C 202.149489 120.778714 202.947241 122.462859 203.661569 124.188716 C 204.375896 125.909359 205.001585 127.666501 205.543848 129.454927 C 206.086111 131.238138 206.539735 133.047421 206.90472 134.877559 C 207.269705 136.712912 207.540837 138.553478 207.723329 140.414901 C 207.911036 142.27111 207.999675 144.132533 207.999675 145.99917 Z M 207.999675 145.99917 "
     transform="matrix(0.749175, 0, 0, 0.749175, 0, 0)"
     id="path15" />
</svg>
